<?xml version="1.0" encoding="UTF-8" standalone="no"?>
<!DOCTYPE svg PUBLIC "-//W3C//DTD SVG 1.1//EN" "http://www.w3.org/Graphics/SVG/1.1/DTD/svg11.dtd">
<svg width="100%" height="100%" viewBox="0 0 230 48" version="1.1" xmlns="http://www.w3.org/2000/svg" xmlns:xlink="http://www.w3.org/1999/xlink" xml:space="preserve" xmlns:serif="http://www.serif.com/" style="fill-rule:evenodd;clip-rule:evenodd;stroke-linejoin:round;stroke-miterlimit:2;">
    <g transform="matrix(1,0,0,1,0,-2828)">
        <g id="BankofPhilSVG" transform="matrix(1.00879,0,0,1.07483,508.431,-214.356)">
            <rect x="-504" y="2830.55" width="227.995" height="44.658" style="fill:none;"/>
            <g transform="matrix(0.54406,0,0,0.510633,-677.652,1425.96)">
                <g transform="matrix(0.14482,0.0177495,-0.0158939,0.12968,661.051,2753.51)">
                    <path d="M237,314C222.305,309.79 210.973,301.22 204,287C199.158,287.33 192.273,287.242 186,287C188.52,278.802 192.764,270.484 197,262C197,262 164.92,231.221 153,224C141.08,216.779 149.907,220.503 128,211C106.093,201.497 62.201,176.852 50,168C37.799,159.148 30.37,154.633 25,141C19.63,127.367 29.96,139.252 33,142C41.438,149.628 62.84,158.395 70,160C70,160 46.15,148.691 41,145C35.85,141.309 22.415,133.764 36,137C49.585,140.236 55.557,144.741 63,149C71.184,153.683 75,157 75,157C75,157 71,149.574 72,149C73,148.426 75.998,151.02 82,155C88.002,158.98 93.735,161.834 98,162C102.265,162.166 107.008,161.34 112,166C116.992,170.66 119.595,173.214 125,178C126.444,179.279 131.687,183.215 131,180C130.239,176.437 134.498,177.329 138,180C141.502,182.671 147.206,186.933 148,183C148.794,179.067 153.222,181.331 156,184C158.778,186.669 159.989,190.106 161,187C162.011,183.894 162.868,184.1 166,187C169.132,189.9 169.702,189.388 172,189C174.298,188.612 175.073,191.846 176,193C179.153,196.927 180.056,195.398 180,192C179.944,188.602 183.379,189.313 185,191C186.621,192.687 190.188,199.61 193,196C195.812,192.39 198.184,190.031 201,194C203.816,197.969 206.176,204.429 208,203C209.824,201.571 210.331,202.497 211,203C211.669,203.503 213.851,203.088 215,202C216.149,200.912 219.35,199.926 221,202C222.65,204.074 223,208 223,208C223,208 226.991,206.985 228,209C229.009,211.015 229.991,217.322 229,219C228.009,220.678 228,224 228,224C228,224 230.853,222.031 235,222C240.034,221.962 250.11,221.197 254,226C257.89,230.803 265.324,233.726 269,234C272.676,234.274 289,236 289,236C289,236 294.273,226.124 301,220C307.727,213.876 315.145,205.699 319,201C322.855,196.301 330.477,186.976 336,181C341.523,175.024 359.708,155.729 367,151C374.292,146.271 377.123,142.936 381,138C384.877,133.064 403.549,114.191 411,109C418.451,103.809 427.574,92.996 429,94C430.426,95.004 428.308,98.011 427,100C425.692,101.989 409.238,119.395 403,126C396.762,132.605 389.827,139.277 391,140C392.173,140.723 413.654,127.719 419,124C424.346,120.281 442.997,104.887 452,98C461.003,91.113 484.451,74.255 498,71C501.792,70.089 507,68.68 513,69C513.155,72.165 502.202,84.218 496,90C491.649,94.056 478.571,103.8 468,112C470.507,112 485.361,105.655 492,100C495.754,96.803 506.073,92.967 512,91C517.324,89.233 521.348,89.511 527,89C525.772,93.07 519.614,97.338 515,101C509.665,105.234 508.793,106.752 503,113C497.207,119.248 498,120 498,120C502.097,120.197 506.421,117.211 511,114C516.141,110.395 525.068,107.498 532,106C532.183,108.191 528.462,113.161 522,117C518.375,119.154 510.307,125.255 505,132C502.198,135.561 501.827,136.653 501,138C504.815,136.153 510.028,133.623 515,132C519.177,130.636 522.604,129.441 526,129C525.082,132.418 516.584,138.574 513,141C508.898,143.777 500.686,151.286 499,153C497.709,154.312 497,155.252 496,157C498.455,156.806 502.3,156.072 506,154C509.83,151.855 518.537,150.186 521,150C518.944,153.462 516.219,156.337 512,159C507.09,162.1 499.782,165.982 496,169C492.997,171.396 491.704,173.061 490,175C493.48,173.67 498.475,173.552 501,174C499.161,176.664 494.635,180.971 491,183C485.443,186.101 480.711,189.688 479,191C479.416,193.135 479.494,196.796 477,199C474.069,201.591 467.704,204.901 464,205C464.482,207 463.558,211.612 461,214C458.42,216.408 454.85,217.303 451,217C451.537,220.413 450.298,223.717 447,226C444.539,227.704 440.192,227 438,227C437.907,230.283 436.86,232.753 435,234C433.569,234.959 430.927,235.722 429,236C429,236 429.166,240.518 426,243C423.992,244.575 422.253,245 420,245C419.168,247.924 418.446,249.533 417,251C415.413,252.609 412.814,253.059 410,253C409.81,256.904 408.196,260.016 407,261C405.902,261.903 403.442,264 398,264C397.429,267.047 398.227,270.934 394,274C389.312,277.4 387.555,277.876 383,278C383.638,279.196 385.333,282.933 384,285C382.189,287.808 378.887,289.873 377,290C380.034,293.562 382.786,296.204 385,300C404.688,297.546 444.362,299.303 448,300C452.302,300.824 460.718,306.647 455,312C452.98,313.891 451.616,315.068 449,316C450.531,317.193 450.902,319.057 450,322C449.153,324.762 445.007,325.152 441,326C442.794,327.794 444.233,330.24 441,333C439.175,334.558 435.494,333.951 434,334C433.815,335.649 433.686,338.835 432,340C427.487,343.117 407.645,346.098 402,345C402.217,346.517 401.908,346.858 401,348C404.759,352.759 439.631,379.505 449,386C459.176,393.302 477.404,410.351 482,416C486.596,421.649 487.396,424.766 481,424C479.832,423.86 478.373,423 476,422C476,423.348 476.42,425.565 475,426C471.491,427.075 466.679,423.152 461,419C452.415,412.722 422.005,385.89 413,376C406.385,368.735 397,360 397,360C385.932,360.336 375.189,359.86 365,358C368.915,365.153 381.809,392.37 377,397C372.126,401.692 367.463,402.395 363,400C358.609,397.644 357.282,395.282 355,393C353.753,394.582 351.617,399.031 348,399C342.423,398.952 332.933,384.753 331,379C329.256,373.808 324.383,362.149 324,359C315.623,357.205 295.459,350.664 282,345C267.119,338.738 246.339,322.974 237,314Z" style="fill:white;"/>
                </g>
                <g transform="matrix(0.370339,0,0,0.331091,165.759,2143.59)">
                    <path d="M978.836,1896.34L977.164,1893.66C995.362,1877.51 1019.76,1864.34 1047.87,1854.57C1058.41,1850.91 1069.44,1847.79 1080.85,1845.22C1095.37,1841.95 1110.43,1839.57 1125.75,1838.16C1135.75,1837.24 1145.86,1836.72 1155.96,1836.75C1166.06,1836.78 1176.16,1837.34 1186.16,1838.31C1201.47,1839.79 1216.52,1842.24 1231.03,1845.52C1246.38,1849 1261.07,1853.39 1274.78,1858.72C1298.39,1867.9 1318.91,1879.63 1334.74,1893.66L1333.06,1896.34C1316.4,1884.84 1295.4,1876.4 1271.8,1870.31C1258.14,1866.78 1243.68,1864.15 1228.66,1862.22C1214.48,1860.4 1199.88,1859.36 1185.07,1858.82C1175.41,1858.47 1165.69,1858.4 1155.97,1858.44C1146.24,1858.47 1136.53,1858.62 1126.87,1859.02C1112.08,1859.65 1097.49,1860.82 1083.32,1862.64C1060.26,1865.6 1038.47,1870.13 1019.05,1876.92C1003.97,1882.19 990.383,1888.51 978.836,1896.34Z" style="fill:white;"/>
                </g>
                <g transform="matrix(0.450774,0,0,0.450774,216.471,2722.43)">
                    <g transform="matrix(1,0,0,1,-47,0)">
                        <g transform="matrix(156.357,0,0,156.357,269,253)">
                            <path d="M0.063,-0L0.374,-0C0.537,-0 0.624,-0.085 0.624,-0.201C0.624,-0.309 0.547,-0.374 0.465,-0.377L0.465,-0.385C0.54,-0.402 0.596,-0.455 0.596,-0.541C0.596,-0.65 0.515,-0.727 0.354,-0.727L0.063,-0.727L0.063,-0ZM0.346,-0.319C0.42,-0.319 0.466,-0.276 0.466,-0.216C0.466,-0.162 0.428,-0.126 0.342,-0.126L0.217,-0.126L0.217,-0.319L0.346,-0.319ZM0.217,-0.603L0.334,-0.603C0.402,-0.603 0.441,-0.568 0.441,-0.515C0.441,-0.458 0.394,-0.423 0.331,-0.423L0.217,-0.423L0.217,-0.603Z" style="fill:rgb(5,204,206);fill-rule:nonzero;"/>
                        </g>
                        <g transform="matrix(156.357,0,0,156.357,372.331,253)">
                            <path d="M0.024,-0L0.189,-0L0.243,-0.166L0.505,-0.166L0.559,-0L0.724,-0L0.473,-0.727L0.275,-0.727L0.024,-0ZM0.371,-0.561L0.377,-0.561L0.466,-0.286L0.282,-0.286L0.371,-0.561Z" style="fill:rgb(5,204,206);fill-rule:nonzero;"/>
                        </g>
                        <g transform="matrix(156.357,0,0,156.357,489.266,253)">
                            <path d="M0.063,-0L0.217,-0L0.217,-0.458L0.222,-0.458L0.539,-0L0.671,-0L0.671,-0.767L0.518,-0.679L0.518,-0.27L0.512,-0.27L0.198,-0.727L0.063,-0.727L0.063,-0Z" style="fill:rgb(5,204,206);fill-rule:nonzero;"/>
                        </g>
                        <g transform="matrix(156.357,0,0,156.357,604.202,253)">
                            <path d="M0.063,-0.683L0.063,-0L0.217,-0L0.217,-0.207L0.293,-0.299L0.492,-0L0.676,-0L0.403,-0.402L0.673,-0.727L0.488,-0.727L0.227,-0.407L0.217,-0.407L0.217,-0.772L0.063,-0.683Z" style="fill:rgb(5,204,206);fill-rule:nonzero;"/>
                        </g>
                    </g>
                    <g transform="matrix(1.32059,0,0,1.33639,-954.684,-340.65)">
                        <g transform="matrix(48,0,0,48,1205,430)">
                            <path d="M0.068,-0.51C0.068,-0.409 0.135,-0.337 0.244,-0.337C0.351,-0.337 0.417,-0.409 0.417,-0.51L0.417,-0.548C0.417,-0.649 0.35,-0.722 0.242,-0.722C0.136,-0.722 0.068,-0.649 0.068,-0.548L0.068,-0.51ZM0.156,-0.51L0.156,-0.548C0.156,-0.604 0.185,-0.649 0.242,-0.649C0.301,-0.649 0.329,-0.604 0.329,-0.548L0.329,-0.51C0.329,-0.452 0.301,-0.409 0.244,-0.409C0.185,-0.409 0.156,-0.452 0.156,-0.51Z" style="fill:rgb(5,204,206);fill-rule:nonzero;"/>
                        </g>
                        <g transform="matrix(48,0,0,48,1228.27,430)">
                            <path d="M0.063,-0.727L0.063,-0L0.217,-0L0.217,-0.3L0.44,-0.3L0.513,-0.427L0.217,-0.427L0.217,-0.6L0.545,-0.6L0.545,-0.727L0.063,-0.727Z" style="fill:rgb(5,204,206);fill-rule:nonzero;"/>
                        </g>
                    </g>
                    <g transform="matrix(1.32059,0,0,1.33639,-954.684,-340.65)">
                        <g transform="matrix(48,0,0,48,1205,430)">
                            <path d="M0.068,-0.51C0.068,-0.409 0.135,-0.337 0.244,-0.337C0.351,-0.337 0.417,-0.409 0.417,-0.51L0.417,-0.548C0.417,-0.649 0.35,-0.722 0.242,-0.722C0.136,-0.722 0.068,-0.649 0.068,-0.548L0.068,-0.51ZM0.156,-0.51L0.156,-0.548C0.156,-0.604 0.185,-0.649 0.242,-0.649C0.301,-0.649 0.329,-0.604 0.329,-0.548L0.329,-0.51C0.329,-0.452 0.301,-0.409 0.244,-0.409C0.185,-0.409 0.156,-0.452 0.156,-0.51Z" style="fill:rgb(5,204,206);fill-rule:nonzero;stroke:rgb(5,204,206);stroke-width:0.04px;"/>
                        </g>
                    </g>
                    <g transform="matrix(1.00215,0,-0.181683,1.00215,473.304,-144.005)">
                        <g transform="matrix(156.357,0,0,156.357,288,396.609)">
                            <path d="M0.063,-0L0.217,-0L0.217,-0.236L0.346,-0.236C0.513,-0.236 0.611,-0.336 0.611,-0.481C0.611,-0.625 0.515,-0.727 0.35,-0.727L0.063,-0.727L0.063,-0ZM0.321,-0.602C0.409,-0.602 0.452,-0.553 0.452,-0.481C0.452,-0.409 0.409,-0.359 0.321,-0.359L0.217,-0.359L0.217,-0.602L0.321,-0.602Z" style="fill:rgb(5,204,206);fill-rule:nonzero;"/>
                        </g>
                        <g transform="matrix(156.357,0,0,156.357,389.277,396.609)">
                            <path d="M0.063,-0.727L0.063,-0L0.217,-0L0.217,-0.3L0.529,-0.3L0.529,-0L0.683,-0L0.683,-0.767L0.529,-0.679L0.529,-0.427L0.217,-0.427L0.217,-0.727L0.063,-0.727Z" style="fill:rgb(5,204,206);fill-rule:nonzero;"/>
                        </g>
                        <g transform="matrix(156.357,0,0,156.357,505.934,396.609)">
                            <path d="M0.217,-0.772L0.063,-0.683L0.063,-0L0.217,-0L0.217,-0.772Z" style="fill:rgb(5,204,206);fill-rule:nonzero;"/>
                        </g>
                        <g transform="matrix(156.357,0,0,156.357,549.798,396.609)">
                            <path d="M0.063,-0L0.529,-0L0.529,-0.127L0.217,-0.127L0.217,-0.683L0.063,-0.772L0.063,-0Z" style="fill:rgb(5,204,206);fill-rule:nonzero;"/>
                        </g>
                    </g>
                </g>
            </g>
        </g>
    </g>
</svg>
