<?xml version="1.0" encoding="UTF-8" standalone="no"?>
<!DOCTYPE svg PUBLIC "-//W3C//DTD SVG 1.1//EN" "http://www.w3.org/Graphics/SVG/1.1/DTD/svg11.dtd">
<svg width="100%" height="100%" viewBox="0 0 145 48" version="1.1" xmlns="http://www.w3.org/2000/svg" xmlns:xlink="http://www.w3.org/1999/xlink" xml:space="preserve" xmlns:serif="http://www.serif.com/" style="fill-rule:evenodd;clip-rule:evenodd;stroke-linejoin:round;stroke-miterlimit:2;">
    <g transform="matrix(1,0,0,1,-235,-2828)">
        <g id="TemporaryPasswordSVG" transform="matrix(1.0035,0,0,1.6108,156.857,-1843.31)">
            <rect x="77.87" y="2900" width="144.494" height="29.799" style="fill:none;"/>
            <g transform="matrix(0.99651,0,0,0.62081,-570.718,1178.33)">
                <g transform="matrix(0.745162,0,0,0.745162,199.604,808.059)">
                    <g transform="matrix(23.7754,0,0,23.7754,650.195,2677.69)">
                        <path d="M0.017,-0.683L0.587,-0.683L0.587,-0.596L0.349,-0.596L0.349,-0L0.251,-0L0.251,-0.596L0.017,-0.596L0.017,-0.683Z" style="fill:white;fill-rule:nonzero;"/>
                    </g>
                    <g transform="matrix(23.7754,0,0,23.7754,660.992,2677.69)">
                        <path d="M0.446,-0.217L0.13,-0.217C0.132,-0.174 0.147,-0.14 0.173,-0.114C0.2,-0.089 0.234,-0.076 0.276,-0.076C0.334,-0.076 0.389,-0.094 0.438,-0.131L0.438,-0.044C0.411,-0.026 0.384,-0.013 0.357,-0.005C0.33,0.003 0.298,0.007 0.262,0.007C0.213,0.007 0.173,-0.003 0.142,-0.024C0.111,-0.044 0.087,-0.072 0.069,-0.107C0.05,-0.141 0.041,-0.181 0.041,-0.227C0.041,-0.295 0.06,-0.351 0.099,-0.394C0.138,-0.437 0.188,-0.458 0.25,-0.458C0.31,-0.458 0.357,-0.437 0.393,-0.396C0.428,-0.354 0.446,-0.298 0.446,-0.228L0.446,-0.217ZM0.132,-0.27L0.358,-0.27C0.356,-0.306 0.345,-0.333 0.326,-0.352C0.307,-0.371 0.282,-0.381 0.25,-0.381C0.218,-0.381 0.192,-0.371 0.172,-0.352C0.151,-0.333 0.138,-0.306 0.132,-0.27Z" style="fill:white;fill-rule:nonzero;"/>
                    </g>
                    <g transform="matrix(23.7754,0,0,23.7754,672.38,2677.69)">
                        <path d="M0.431,-0.326L0.431,-0L0.342,-0L0.342,-0.25C0.342,-0.3 0.335,-0.335 0.322,-0.354C0.308,-0.374 0.285,-0.384 0.252,-0.384C0.233,-0.384 0.216,-0.38 0.201,-0.371C0.185,-0.363 0.168,-0.348 0.148,-0.326L0.148,-0L0.059,-0L0.059,-0.449L0.148,-0.449L0.148,-0.39C0.193,-0.435 0.237,-0.458 0.281,-0.458C0.338,-0.458 0.382,-0.431 0.413,-0.377C0.461,-0.432 0.51,-0.459 0.562,-0.459C0.606,-0.459 0.642,-0.443 0.67,-0.411C0.698,-0.379 0.712,-0.331 0.712,-0.265L0.712,-0L0.623,-0L0.623,-0.266C0.623,-0.304 0.615,-0.332 0.6,-0.352C0.585,-0.372 0.563,-0.382 0.534,-0.382C0.497,-0.382 0.463,-0.363 0.431,-0.326Z" style="fill:white;fill-rule:nonzero;"/>
                    </g>
                    <g transform="matrix(23.7754,0,0,23.7754,690.711,2677.69)">
                        <path d="M0.057,0.229L0.057,-0.449L0.213,-0.449C0.292,-0.449 0.354,-0.429 0.399,-0.39C0.443,-0.35 0.465,-0.294 0.465,-0.223C0.465,-0.156 0.444,-0.1 0.403,-0.057C0.361,-0.014 0.308,0.008 0.243,0.008C0.214,0.008 0.183,0.001 0.148,-0.011L0.148,0.229L0.057,0.229ZM0.211,-0.366L0.148,-0.366L0.148,-0.09C0.175,-0.076 0.204,-0.069 0.234,-0.069C0.275,-0.069 0.309,-0.083 0.336,-0.112C0.362,-0.141 0.375,-0.179 0.375,-0.224C0.375,-0.253 0.369,-0.279 0.357,-0.302C0.344,-0.324 0.327,-0.341 0.306,-0.351C0.284,-0.361 0.252,-0.366 0.211,-0.366Z" style="fill:white;fill-rule:nonzero;"/>
                    </g>
                    <g transform="matrix(23.7754,0,0,23.7754,702.599,2677.69)">
                        <path d="M0.278,-0.45C0.346,-0.45 0.403,-0.428 0.448,-0.384C0.493,-0.34 0.516,-0.285 0.516,-0.218C0.516,-0.153 0.493,-0.099 0.447,-0.056C0.401,-0.014 0.344,0.008 0.274,0.008C0.207,0.008 0.15,-0.014 0.105,-0.057C0.06,-0.101 0.037,-0.155 0.037,-0.22C0.037,-0.286 0.06,-0.341 0.106,-0.385C0.151,-0.428 0.209,-0.45 0.278,-0.45ZM0.273,-0.37C0.23,-0.37 0.195,-0.356 0.168,-0.328C0.141,-0.3 0.127,-0.264 0.127,-0.221C0.127,-0.178 0.141,-0.143 0.169,-0.116C0.197,-0.089 0.233,-0.075 0.277,-0.075C0.32,-0.075 0.356,-0.089 0.384,-0.116C0.412,-0.144 0.426,-0.179 0.426,-0.222C0.426,-0.265 0.411,-0.3 0.382,-0.328C0.353,-0.356 0.317,-0.37 0.273,-0.37Z" style="fill:white;fill-rule:nonzero;"/>
                    </g>
                    <g transform="matrix(23.7754,0,0,23.7754,715.717,2677.69)">
                        <path d="M0.158,-0.449L0.158,-0.346L0.163,-0.354C0.206,-0.423 0.249,-0.458 0.292,-0.458C0.326,-0.458 0.361,-0.441 0.397,-0.407L0.35,-0.329C0.319,-0.358 0.291,-0.373 0.264,-0.373C0.236,-0.373 0.211,-0.359 0.19,-0.332C0.169,-0.305 0.158,-0.272 0.158,-0.235L0.158,-0L0.069,-0L0.069,-0.449L0.158,-0.449Z" style="fill:white;fill-rule:nonzero;"/>
                    </g>
                    <g transform="matrix(23.7754,0,0,23.7754,725.132,2677.69)">
                        <path d="M0.345,-0.27L0.345,-0.079C0.345,-0.064 0.35,-0.056 0.361,-0.056C0.372,-0.056 0.388,-0.064 0.411,-0.08L0.411,-0.026C0.391,-0.013 0.375,-0.004 0.363,0.001C0.35,0.005 0.338,0.008 0.324,0.008C0.286,0.008 0.264,-0.007 0.257,-0.037C0.219,-0.008 0.179,0.007 0.136,0.007C0.105,0.007 0.079,-0.003 0.058,-0.024C0.037,-0.045 0.027,-0.071 0.027,-0.102C0.027,-0.13 0.037,-0.156 0.057,-0.178C0.078,-0.2 0.107,-0.218 0.144,-0.231L0.258,-0.27L0.258,-0.294C0.258,-0.348 0.231,-0.375 0.177,-0.375C0.128,-0.375 0.081,-0.35 0.035,-0.3L0.035,-0.397C0.07,-0.438 0.119,-0.458 0.184,-0.458C0.233,-0.458 0.271,-0.445 0.301,-0.42C0.311,-0.412 0.319,-0.401 0.327,-0.387C0.335,-0.374 0.34,-0.36 0.342,-0.347C0.344,-0.333 0.345,-0.308 0.345,-0.27ZM0.258,-0.089L0.258,-0.222L0.198,-0.199C0.168,-0.187 0.147,-0.175 0.134,-0.163C0.122,-0.151 0.115,-0.135 0.115,-0.117C0.115,-0.099 0.121,-0.083 0.133,-0.072C0.145,-0.06 0.16,-0.054 0.179,-0.054C0.208,-0.054 0.234,-0.066 0.258,-0.089Z" style="fill:white;fill-rule:nonzero;"/>
                    </g>
                    <g transform="matrix(23.7754,0,0,23.7754,735.279,2677.69)">
                        <path d="M0.158,-0.449L0.158,-0.346L0.163,-0.354C0.206,-0.423 0.249,-0.458 0.292,-0.458C0.326,-0.458 0.361,-0.441 0.397,-0.407L0.35,-0.329C0.319,-0.358 0.291,-0.373 0.264,-0.373C0.236,-0.373 0.211,-0.359 0.19,-0.332C0.169,-0.305 0.158,-0.272 0.158,-0.235L0.158,-0L0.069,-0L0.069,-0.449L0.158,-0.449Z" style="fill:white;fill-rule:nonzero;"/>
                    </g>
                    <g transform="matrix(23.7754,0,0,23.7754,745.402,2677.69)">
                        <path d="M0.339,-0.449L0.438,-0.449L0.12,0.229L0.021,0.229L0.173,-0.096L0,-0.449L0.101,-0.449L0.223,-0.195L0.339,-0.449Z" style="fill:white;fill-rule:nonzero;"/>
                    </g>
                    <g transform="matrix(23.7754,0,0,23.7754,657.381,2701.46)">
                        <path d="M0.07,-0L0.07,-0.683L0.286,-0.683C0.351,-0.683 0.403,-0.666 0.442,-0.63C0.481,-0.595 0.5,-0.548 0.5,-0.489C0.5,-0.449 0.49,-0.414 0.47,-0.383C0.45,-0.353 0.423,-0.33 0.389,-0.317C0.354,-0.303 0.305,-0.296 0.24,-0.296L0.168,-0.296L0.168,-0L0.07,-0ZM0.269,-0.596L0.168,-0.596L0.168,-0.383L0.275,-0.383C0.315,-0.383 0.345,-0.392 0.367,-0.411C0.388,-0.43 0.399,-0.456 0.399,-0.491C0.399,-0.561 0.356,-0.596 0.269,-0.596Z" style="fill:white;fill-rule:nonzero;"/>
                    </g>
                    <g transform="matrix(23.7754,0,0,23.7754,669.501,2701.46)">
                        <path d="M0.345,-0.27L0.345,-0.079C0.345,-0.064 0.35,-0.056 0.361,-0.056C0.372,-0.056 0.388,-0.064 0.411,-0.08L0.411,-0.026C0.391,-0.013 0.375,-0.004 0.363,0.001C0.35,0.005 0.338,0.008 0.324,0.008C0.286,0.008 0.264,-0.007 0.257,-0.037C0.219,-0.008 0.179,0.007 0.136,0.007C0.105,0.007 0.079,-0.003 0.058,-0.024C0.037,-0.045 0.027,-0.071 0.027,-0.102C0.027,-0.13 0.037,-0.156 0.057,-0.178C0.078,-0.2 0.107,-0.218 0.144,-0.231L0.258,-0.27L0.258,-0.294C0.258,-0.348 0.231,-0.375 0.177,-0.375C0.128,-0.375 0.081,-0.35 0.035,-0.3L0.035,-0.397C0.07,-0.438 0.119,-0.458 0.184,-0.458C0.233,-0.458 0.271,-0.445 0.301,-0.42C0.311,-0.412 0.319,-0.401 0.327,-0.387C0.335,-0.374 0.34,-0.36 0.342,-0.347C0.344,-0.333 0.345,-0.308 0.345,-0.27ZM0.258,-0.089L0.258,-0.222L0.198,-0.199C0.168,-0.187 0.147,-0.175 0.134,-0.163C0.122,-0.151 0.115,-0.135 0.115,-0.117C0.115,-0.099 0.121,-0.083 0.133,-0.072C0.145,-0.06 0.16,-0.054 0.179,-0.054C0.208,-0.054 0.234,-0.066 0.258,-0.089Z" style="fill:white;fill-rule:nonzero;"/>
                    </g>
                    <g transform="matrix(23.7754,0,0,23.7754,679.648,2701.46)">
                        <path d="M0.041,-0.032L0.041,-0.128C0.066,-0.11 0.092,-0.096 0.118,-0.085C0.144,-0.074 0.166,-0.069 0.184,-0.069C0.203,-0.069 0.219,-0.073 0.232,-0.083C0.245,-0.092 0.252,-0.103 0.252,-0.115C0.252,-0.128 0.248,-0.139 0.239,-0.148C0.23,-0.156 0.212,-0.169 0.183,-0.185C0.126,-0.217 0.088,-0.244 0.071,-0.267C0.053,-0.289 0.044,-0.314 0.044,-0.341C0.044,-0.375 0.057,-0.403 0.084,-0.425C0.111,-0.447 0.146,-0.458 0.188,-0.458C0.232,-0.458 0.277,-0.446 0.323,-0.421L0.323,-0.333C0.271,-0.365 0.227,-0.381 0.194,-0.381C0.177,-0.381 0.163,-0.377 0.152,-0.37C0.142,-0.363 0.136,-0.353 0.136,-0.341C0.136,-0.33 0.141,-0.32 0.151,-0.311C0.16,-0.302 0.177,-0.29 0.201,-0.277L0.233,-0.259C0.308,-0.216 0.345,-0.17 0.345,-0.118C0.345,-0.081 0.331,-0.051 0.302,-0.028C0.273,-0.004 0.236,0.008 0.191,0.008C0.164,0.008 0.14,0.005 0.12,-0.001C0.099,-0.006 0.073,-0.017 0.041,-0.032Z" style="fill:white;fill-rule:nonzero;"/>
                    </g>
                    <g transform="matrix(23.7754,0,0,23.7754,688.796,2701.46)">
                        <path d="M0.041,-0.032L0.041,-0.128C0.066,-0.11 0.092,-0.096 0.118,-0.085C0.144,-0.074 0.166,-0.069 0.184,-0.069C0.203,-0.069 0.219,-0.073 0.232,-0.083C0.245,-0.092 0.252,-0.103 0.252,-0.115C0.252,-0.128 0.248,-0.139 0.239,-0.148C0.23,-0.156 0.212,-0.169 0.183,-0.185C0.126,-0.217 0.088,-0.244 0.071,-0.267C0.053,-0.289 0.044,-0.314 0.044,-0.341C0.044,-0.375 0.057,-0.403 0.084,-0.425C0.111,-0.447 0.146,-0.458 0.188,-0.458C0.232,-0.458 0.277,-0.446 0.323,-0.421L0.323,-0.333C0.271,-0.365 0.227,-0.381 0.194,-0.381C0.177,-0.381 0.163,-0.377 0.152,-0.37C0.142,-0.363 0.136,-0.353 0.136,-0.341C0.136,-0.33 0.141,-0.32 0.151,-0.311C0.16,-0.302 0.177,-0.29 0.201,-0.277L0.233,-0.259C0.308,-0.216 0.345,-0.17 0.345,-0.118C0.345,-0.081 0.331,-0.051 0.302,-0.028C0.273,-0.004 0.236,0.008 0.191,0.008C0.164,0.008 0.14,0.005 0.12,-0.001C0.099,-0.006 0.073,-0.017 0.041,-0.032Z" style="fill:white;fill-rule:nonzero;"/>
                    </g>
                    <g transform="matrix(23.7754,0,0,23.7754,697.711,2701.46)">
                        <path d="M0.624,-0.449L0.72,-0.449L0.521,0.008L0.493,0.008L0.36,-0.305L0.229,0.008L0.2,0.008L0,-0.449L0.095,-0.449L0.213,-0.177L0.328,-0.449L0.394,-0.449L0.507,-0.177L0.624,-0.449Z" style="fill:white;fill-rule:nonzero;"/>
                    </g>
                    <g transform="matrix(23.7754,0,0,23.7754,714.336,2701.46)">
                        <path d="M0.278,-0.45C0.346,-0.45 0.403,-0.428 0.448,-0.384C0.493,-0.34 0.516,-0.285 0.516,-0.218C0.516,-0.153 0.493,-0.099 0.447,-0.056C0.401,-0.014 0.344,0.008 0.274,0.008C0.207,0.008 0.15,-0.014 0.105,-0.057C0.06,-0.101 0.037,-0.155 0.037,-0.22C0.037,-0.286 0.06,-0.341 0.106,-0.385C0.151,-0.428 0.209,-0.45 0.278,-0.45ZM0.273,-0.37C0.23,-0.37 0.195,-0.356 0.168,-0.328C0.141,-0.3 0.127,-0.264 0.127,-0.221C0.127,-0.178 0.141,-0.143 0.169,-0.116C0.197,-0.089 0.233,-0.075 0.277,-0.075C0.32,-0.075 0.356,-0.089 0.384,-0.116C0.412,-0.144 0.426,-0.179 0.426,-0.222C0.426,-0.265 0.411,-0.3 0.382,-0.328C0.353,-0.356 0.317,-0.37 0.273,-0.37Z" style="fill:white;fill-rule:nonzero;"/>
                    </g>
                    <g transform="matrix(23.7754,0,0,23.7754,727.454,2701.46)">
                        <path d="M0.158,-0.449L0.158,-0.346L0.163,-0.354C0.206,-0.423 0.249,-0.458 0.292,-0.458C0.326,-0.458 0.361,-0.441 0.397,-0.407L0.35,-0.329C0.319,-0.358 0.291,-0.373 0.264,-0.373C0.236,-0.373 0.211,-0.359 0.19,-0.332C0.169,-0.305 0.158,-0.272 0.158,-0.235L0.158,-0L0.069,-0L0.069,-0.449L0.158,-0.449Z" style="fill:white;fill-rule:nonzero;"/>
                    </g>
                    <g transform="matrix(23.7754,0,0,23.7754,736.509,2701.46)">
                        <path d="M0.363,-0.682L0.452,-0.682L0.452,-0L0.262,-0C0.196,-0 0.143,-0.021 0.103,-0.063C0.064,-0.105 0.044,-0.161 0.044,-0.232C0.044,-0.298 0.065,-0.352 0.106,-0.395C0.148,-0.438 0.201,-0.459 0.265,-0.459C0.295,-0.459 0.328,-0.453 0.363,-0.44L0.363,-0.682ZM0.363,-0.076L0.363,-0.361C0.335,-0.375 0.307,-0.382 0.279,-0.382C0.235,-0.382 0.199,-0.367 0.173,-0.338C0.147,-0.309 0.134,-0.27 0.134,-0.221C0.134,-0.175 0.145,-0.139 0.168,-0.114C0.182,-0.099 0.196,-0.089 0.211,-0.084C0.227,-0.079 0.254,-0.076 0.294,-0.076L0.363,-0.076Z" style="fill:white;fill-rule:nonzero;"/>
                    </g>
                </g>
                <g transform="matrix(-0.745162,0,0,0.604204,1262.03,1189.2)">
                    <path d="M652.105,2660.65L649.895,2658.31L635.08,2679.58L649.895,2700.85L652.105,2698.51C652.105,2698.51 638.92,2679.58 638.92,2679.58L652.105,2660.65Z" style="fill:rgb(5,204,206);"/>
                </g>
                <g transform="matrix(-0.745162,0,0,0.604204,1268.73,1189.2)">
                    <path d="M652.105,2660.65L649.895,2658.31L635.08,2679.58L649.895,2700.85L652.105,2698.51C652.105,2698.51 638.92,2679.58 638.92,2679.58L652.105,2660.65Z" style="fill:rgb(5,204,206);"/>
                </g>
                <g transform="matrix(-0.745162,0,0,0.604204,1255.32,1189.2)">
                    <path d="M652.105,2660.65L649.895,2658.31L635.08,2679.58L649.895,2700.85L652.105,2698.51C652.105,2698.51 638.92,2679.58 638.92,2679.58L652.105,2660.65Z" style="fill:rgb(5,204,206);"/>
                </g>
                <g transform="matrix(0.745162,0,0,0.604204,178.491,1189.2)">
                    <path d="M649.895,2658.31L652.105,2660.65C652.105,2660.65 638.92,2679.58 638.92,2679.58L652.105,2698.51L649.895,2700.85L635.08,2679.58L649.895,2658.31Z" style="fill:rgb(5,204,206);"/>
                </g>
                <g transform="matrix(0.745162,0,0,0.604204,185.197,1189.2)">
                    <path d="M649.895,2658.31L652.105,2660.65C652.105,2660.65 638.92,2679.58 638.92,2679.58L652.105,2698.51L649.895,2700.85L635.08,2679.58L649.895,2658.31Z" style="fill:rgb(5,204,206);"/>
                </g>
                <g transform="matrix(0.745162,0,0,0.604204,191.904,1189.2)">
                    <path d="M649.895,2658.31L652.105,2660.65C652.105,2660.65 638.92,2679.58 638.92,2679.58L652.105,2698.51L649.895,2700.85L635.08,2679.58L649.895,2658.31Z" style="fill:rgb(5,204,206);"/>
                </g>
            </g>
        </g>
    </g>
</svg>
